# xmcd
#
# Track frame offsets:
#	150
#	16110
#	28636
#	41542
#	53341
#	67451
#	76696
#	88190
#	99421
#	117717
#	131969
#	146046
#	159384
#
# Disc length: 2293 seconds
#
# Revision: 0
# Processed by: cddbd v1.5.2PL0 Copyright (c) Steve Scherf et al.
# Submitted via: audiograbber 1.83.01
#
DISCID=ad08f30d
DTITLE=The Paladins - Slippin' In
DYEAR=1999
DGENRE=Rockabilly
TTITLE0=You're The One That Done It
TTITLE1=Rain Rain
TTITLE2=The Hard Way
TTITLE3=Slippin' In
TTITLE4=Baby Don't Move Me
TTITLE5=Five Minute Love Affair
TTITLE6=Strong Boy
TTITLE7=Gone Again
TTITLE8=Judgement Day
TTITLE9=Return To Polara
TTITLE10=Vampira
TTITLE11=California Boogie
TTITLE12=Lady Luck
EXTD=
EXTT0=
EXTT1=
EXTT2=
EXTT3=
EXTT4=
EXTT5=
EXTT6=
EXTT7=
EXTT8=
EXTT9=
EXTT10=
EXTT11=
EXTT12=
PLAYORDER=
